<svg id="Capa_1" data-name="Capa 1" xmlns="http://www.w3.org/2000/svg" viewBox="0 0 369.04 277.44"><defs><style>.cls-1,.cls-2{fill:none;stroke:#b2b5b4;stroke-miterlimit:10;}.cls-1{stroke-width:18px;}.cls-2{stroke-width:8px;}</style></defs><title>image-loading</title><circle class="cls-1" cx="188.65" cy="164.66" r="66.21"/><path class="cls-2" d="M99.11,106.38l5.36-32.68a29.49,29.49,0,0,1,18.89-18.38H258.43A29.87,29.87,0,0,1,275.28,74l5.61,32.42h59a35.65,35.65,0,0,1,30.64,34q-.12,76.08-.25,152.17a34.44,34.44,0,0,1-30.13,32.17H39.87a34.92,34.92,0,0,1-30.38-32.5V134.72a36.22,36.22,0,0,1,27.83-27.83Z" transform="translate(-5.49 -51.32)"/></svg>